<?xml version="1.0" standalone="no"?>
<!DOCTYPE svg PUBLIC "-//W3C//DTD SVG 20010904//EN"
 "http://www.w3.org/TR/2001/REC-SVG-20010904/DTD/svg10.dtd">
<svg version="1.0" xmlns="http://www.w3.org/2000/svg"
 width="512.000000pt" height="512.000000pt" viewBox="0 0 512.000000 512.000000"
 preserveAspectRatio="xMidYMid meet">
<metadata>
Created by potrace 1.16, written by Peter Selinger 2001-2019
</metadata>
<g transform="translate(0.000000,512.000000) scale(0.100000,-0.100000)"
fill="#000000" stroke="none">
<path d="M2755 4978 c-671 -455 -1008 -978 -1009 -1563 0 -210 33 -353 122
-530 108 -217 302 -406 526 -515 596 -291 1322 -11 1571 606 61 150 79 249 79
434 0 258 -44 441 -165 678 -166 328 -429 607 -828 881 -96 66 -108 71 -155
71 -46 -1 -61 -7 -141 -62z m270 -291 c436 -328 686 -677 761 -1065 23 -116
23 -313 0 -407 -88 -364 -357 -628 -715 -700 -114 -23 -314 -16 -421 15 -209
60 -399 201 -517 383 -59 90 -90 163 -119 277 -46 177 -29 423 42 622 113 316
384 642 754 906 98 70 76 73 215 -31z"/>
<path d="M2232 3507 c-42 -24 -54 -53 -53 -131 4 -247 162 -496 390 -609 101
-51 145 -58 192 -30 29 17 59 67 59 97 0 9 -6 32 -14 51 -12 29 -29 41 -103
77 -176 85 -292 255 -293 426 0 49 -20 94 -52 116 -27 19 -94 20 -126 3z"/>
<path d="M4370 2254 c-89 -24 -160 -70 -443 -283 -292 -221 -346 -251 -376
-208 -72 105 -211 207 -342 252 l-84 29 -304 4 -305 4 -85 43 c-186 92 -343
129 -551 129 -219 0 -381 -39 -582 -140 -169 -85 -306 -193 -773 -610 -251
-225 -285 -262 -292 -311 -11 -82 39 -133 130 -133 40 0 12 -22 374 301 422
378 522 458 669 533 169 86 301 118 479 118 163 -1 277 -30 445 -114 l125 -63
330 -5 330 -5 58 -27 c108 -51 227 -191 227 -268 0 -61 12 -59 -532 -62 -486
-3 -497 -3 -525 -24 -59 -44 -63 -133 -7 -185 l26 -24 531 0 532 0 53 29 c89
50 148 133 159 226 l6 48 61 17 c53 15 98 45 351 235 160 119 309 227 332 239
94 47 186 36 228 -27 66 -102 63 -107 -294 -477 -168 -173 -316 -322 -329
-331 -13 -8 -290 -110 -615 -227 l-592 -211 -495 -6 c-460 -5 -498 -7 -540
-25 -126 -54 -213 -121 -392 -302 -139 -140 -144 -148 -138 -213 3 -35 26 -77
49 -90 28 -15 98 -12 129 4 15 8 80 69 145 136 120 122 212 199 277 229 30 14
102 17 525 21 l490 5 215 77 c118 42 397 141 620 220 294 105 421 154 460 181
59 39 657 653 702 720 64 96 75 252 24 362 -33 73 -115 158 -185 192 -46 23
-70 28 -151 30 -62 2 -114 -2 -150 -13z"/>
</g>
</svg>
